<mxfile host="app.diagrams.net" modified="2024-05-30T17:28:48.219Z" agent="Mozilla/5.0 (Windows NT 10.0; Win64; x64; rv:126.0) Gecko/20100101 Firefox/126.0" etag="kfglvf2Sy37i3Y8vTODC" version="24.4.10" type="device">
  <diagram id="6a731a19-8d31-9384-78a2-239565b7b9f0" name="Page-1">
    <mxGraphModel dx="2230" dy="-135" grid="1" gridSize="10" guides="1" tooltips="1" connect="1" arrows="1" fold="1" page="1" pageScale="1" pageWidth="1169" pageHeight="827" background="none" math="0" shadow="0">
      <root>
        <mxCell id="0" />
        <mxCell id="1" parent="0" />
        <mxCell id="K02zq3fW6YqKF-il60_Z-228" value="&lt;h1 style=&quot;margin-top: 0px;&quot;&gt;Use case&lt;br&gt;&lt;/h1&gt;Confirm identity of user through the tuned model prediction." style="text;html=1;whiteSpace=wrap;overflow=hidden;rounded=0;" parent="1" vertex="1">
          <mxGeometry x="-1120" y="870" width="280" height="122" as="geometry" />
        </mxCell>
        <mxCell id="K02zq3fW6YqKF-il60_Z-229" value="Siamese model" style="swimlane;whiteSpace=wrap;html=1;swimlaneFillColor=default;strokeWidth=2;" parent="1" vertex="1">
          <mxGeometry x="-480" y="1006" width="340" height="251" as="geometry">
            <mxRectangle x="600" y="240" width="100" height="30" as="alternateBounds" />
          </mxGeometry>
        </mxCell>
        <mxCell id="K02zq3fW6YqKF-il60_Z-230" style="edgeStyle=orthogonalEdgeStyle;rounded=0;orthogonalLoop=1;jettySize=auto;html=1;curved=1;strokeWidth=2;dashed=1;endArrow=none;endFill=0;" parent="K02zq3fW6YqKF-il60_Z-229" source="K02zq3fW6YqKF-il60_Z-231" target="K02zq3fW6YqKF-il60_Z-233" edge="1">
          <mxGeometry relative="1" as="geometry">
            <Array as="points">
              <mxPoint x="210" y="91" />
              <mxPoint x="210" y="131" />
            </Array>
          </mxGeometry>
        </mxCell>
        <mxCell id="K02zq3fW6YqKF-il60_Z-231" value="&lt;div&gt;embedding&lt;/div&gt;&lt;div&gt;kernel&lt;/div&gt;" style="shape=cube;whiteSpace=wrap;html=1;boundedLbl=1;backgroundOutline=1;darkOpacity=0.05;darkOpacity2=0.1;strokeWidth=2;strokeColor=default;fillColor=default;" parent="K02zq3fW6YqKF-il60_Z-229" vertex="1">
          <mxGeometry x="80" y="51" width="120" height="80" as="geometry" />
        </mxCell>
        <mxCell id="K02zq3fW6YqKF-il60_Z-232" value="&lt;div&gt;embedding&lt;/div&gt;&lt;div&gt;kernel&lt;/div&gt;" style="shape=cube;whiteSpace=wrap;html=1;boundedLbl=1;backgroundOutline=1;darkOpacity=0.05;darkOpacity2=0.1;strokeWidth=2;strokeColor=default;fillColor=default;" parent="K02zq3fW6YqKF-il60_Z-229" vertex="1">
          <mxGeometry x="80" y="151" width="120" height="80" as="geometry" />
        </mxCell>
        <mxCell id="K02zq3fW6YqKF-il60_Z-233" value="classifier" style="shape=cube;whiteSpace=wrap;html=1;boundedLbl=1;backgroundOutline=1;darkOpacity=0.05;darkOpacity2=0.1;strokeWidth=2;strokeColor=default;fillColor=default;textDirection=vertical-lr;size=10;" parent="K02zq3fW6YqKF-il60_Z-229" vertex="1">
          <mxGeometry x="230" y="80" width="40" height="120" as="geometry" />
        </mxCell>
        <mxCell id="K02zq3fW6YqKF-il60_Z-234" style="edgeStyle=orthogonalEdgeStyle;rounded=0;orthogonalLoop=1;jettySize=auto;html=1;curved=1;strokeWidth=2;dashed=1;endArrow=none;endFill=0;" parent="K02zq3fW6YqKF-il60_Z-229" source="K02zq3fW6YqKF-il60_Z-232" target="K02zq3fW6YqKF-il60_Z-233" edge="1">
          <mxGeometry relative="1" as="geometry">
            <mxPoint x="210" y="101" as="sourcePoint" />
            <mxPoint x="240" y="141" as="targetPoint" />
            <Array as="points">
              <mxPoint x="210" y="191" />
              <mxPoint x="210" y="151" />
            </Array>
          </mxGeometry>
        </mxCell>
        <mxCell id="K02zq3fW6YqKF-il60_Z-235" style="edgeStyle=orthogonalEdgeStyle;rounded=0;orthogonalLoop=1;jettySize=auto;html=1;curved=1;strokeWidth=2;dashed=1;endArrow=none;endFill=0;" parent="K02zq3fW6YqKF-il60_Z-229" source="K02zq3fW6YqKF-il60_Z-237" target="K02zq3fW6YqKF-il60_Z-232" edge="1">
          <mxGeometry relative="1" as="geometry">
            <mxPoint x="50" y="151" as="sourcePoint" />
            <mxPoint x="80" y="191" as="targetPoint" />
            <Array as="points">
              <mxPoint x="60" y="151" />
              <mxPoint x="60" y="191" />
            </Array>
          </mxGeometry>
        </mxCell>
        <mxCell id="K02zq3fW6YqKF-il60_Z-236" style="edgeStyle=orthogonalEdgeStyle;rounded=0;orthogonalLoop=1;jettySize=auto;html=1;curved=1;strokeWidth=2;dashed=1;endArrow=none;endFill=0;" parent="K02zq3fW6YqKF-il60_Z-229" source="K02zq3fW6YqKF-il60_Z-237" target="K02zq3fW6YqKF-il60_Z-231" edge="1">
          <mxGeometry relative="1" as="geometry">
            <mxPoint x="50" y="131" as="sourcePoint" />
            <mxPoint x="80" y="91" as="targetPoint" />
            <Array as="points">
              <mxPoint x="60" y="131" />
              <mxPoint x="60" y="91" />
            </Array>
          </mxGeometry>
        </mxCell>
        <mxCell id="K02zq3fW6YqKF-il60_Z-237" value="input" style="shape=cube;whiteSpace=wrap;html=1;boundedLbl=1;backgroundOutline=1;darkOpacity=0.05;darkOpacity2=0.1;strokeWidth=2;strokeColor=default;fillColor=default;textDirection=vertical-lr;size=4;" parent="K02zq3fW6YqKF-il60_Z-229" vertex="1">
          <mxGeometry x="25" y="110" width="26" height="60" as="geometry" />
        </mxCell>
        <mxCell id="K02zq3fW6YqKF-il60_Z-238" value="output" style="shape=cube;whiteSpace=wrap;html=1;boundedLbl=1;backgroundOutline=1;darkOpacity=0.05;darkOpacity2=0.1;strokeWidth=2;strokeColor=default;fillColor=default;textDirection=vertical-lr;size=4;" parent="K02zq3fW6YqKF-il60_Z-229" vertex="1">
          <mxGeometry x="290" y="116" width="24" height="48" as="geometry" />
        </mxCell>
        <mxCell id="K02zq3fW6YqKF-il60_Z-239" style="edgeStyle=orthogonalEdgeStyle;rounded=0;orthogonalLoop=1;jettySize=auto;html=1;curved=1;strokeWidth=2;dashed=1;endArrow=none;endFill=0;" parent="K02zq3fW6YqKF-il60_Z-229" source="K02zq3fW6YqKF-il60_Z-233" target="K02zq3fW6YqKF-il60_Z-238" edge="1">
          <mxGeometry relative="1" as="geometry">
            <mxPoint x="210" y="101" as="sourcePoint" />
            <mxPoint x="290" y="211" as="targetPoint" />
            <Array as="points" />
          </mxGeometry>
        </mxCell>
        <mxCell id="K02zq3fW6YqKF-il60_Z-253" value="load presaved siamese model" style="rounded=1;whiteSpace=wrap;html=1;strokeWidth=2;" parent="1" vertex="1">
          <mxGeometry x="-700" y="1066.5" width="110" height="40" as="geometry" />
        </mxCell>
        <mxCell id="K02zq3fW6YqKF-il60_Z-256" value="" style="curved=1;endArrow=block;html=1;rounded=0;strokeWidth=2;endSize=4;endFill=1;" parent="1" edge="1">
          <mxGeometry width="50" height="50" relative="1" as="geometry">
            <mxPoint x="-810" y="1286" as="sourcePoint" />
            <mxPoint x="-740" y="1286" as="targetPoint" />
            <Array as="points">
              <mxPoint x="-770" y="1276" />
            </Array>
          </mxGeometry>
        </mxCell>
        <mxCell id="K02zq3fW6YqKF-il60_Z-257" value="&lt;div&gt;y pictures&lt;/div&gt;" style="edgeLabel;html=1;align=center;verticalAlign=middle;resizable=0;points=[];" parent="K02zq3fW6YqKF-il60_Z-256" vertex="1" connectable="0">
          <mxGeometry x="0.2043" y="-1" relative="1" as="geometry">
            <mxPoint x="-5" y="-17" as="offset" />
          </mxGeometry>
        </mxCell>
        <mxCell id="K02zq3fW6YqKF-il60_Z-258" value="" style="curved=1;endArrow=block;html=1;rounded=0;strokeWidth=2;endSize=4;endFill=1;" parent="1" edge="1">
          <mxGeometry width="50" height="50" relative="1" as="geometry">
            <mxPoint x="-610" y="1297" as="sourcePoint" />
            <mxPoint x="-530" y="1356" as="targetPoint" />
            <Array as="points">
              <mxPoint x="-580" y="1296.5" />
              <mxPoint x="-570" y="1356" />
            </Array>
          </mxGeometry>
        </mxCell>
        <mxCell id="K02zq3fW6YqKF-il60_Z-260" value="y tuples" style="edgeLabel;html=1;align=center;verticalAlign=middle;resizable=0;points=[];" parent="1" vertex="1" connectable="0">
          <mxGeometry x="-560.0031256476975" y="1295.9979645239937" as="geometry" />
        </mxCell>
        <mxCell id="K02zq3fW6YqKF-il60_Z-261" value="" style="curved=1;endArrow=block;html=1;rounded=0;strokeWidth=2;endSize=4;endFill=1;" parent="1" edge="1">
          <mxGeometry width="50" height="50" relative="1" as="geometry">
            <mxPoint x="-820" y="1076" as="sourcePoint" />
            <mxPoint x="-710" y="1088" as="targetPoint" />
            <Array as="points">
              <mxPoint x="-790" y="1106" />
            </Array>
          </mxGeometry>
        </mxCell>
        <mxCell id="K02zq3fW6YqKF-il60_Z-262" value="import from&lt;br&gt;local file" style="edgeLabel;html=1;align=center;verticalAlign=middle;resizable=0;points=[];" parent="K02zq3fW6YqKF-il60_Z-261" vertex="1" connectable="0">
          <mxGeometry x="0.6955" y="-2" relative="1" as="geometry">
            <mxPoint x="-37" y="28" as="offset" />
          </mxGeometry>
        </mxCell>
        <mxCell id="K02zq3fW6YqKF-il60_Z-263" value="saved_model" style="sketch=0;outlineConnect=0;dashed=0;verticalLabelPosition=bottom;verticalAlign=top;align=center;html=1;fontSize=12;fontStyle=0;aspect=fixed;pointerEvents=1;shape=mxgraph.aws4.folder;strokeWidth=1;fillColor=#030303;" parent="1" vertex="1">
          <mxGeometry x="-870" y="1006" width="45.04" height="41" as="geometry" />
        </mxCell>
        <mxCell id="K02zq3fW6YqKF-il60_Z-264" value="&lt;div&gt;.h5&lt;/div&gt;" style="shape=note;whiteSpace=wrap;html=1;backgroundOutline=1;darkOpacity=0.05;strokeWidth=2;size=11;" parent="1" vertex="1">
          <mxGeometry x="-765.5" y="1036" width="31" height="38.75" as="geometry" />
        </mxCell>
        <mxCell id="K02zq3fW6YqKF-il60_Z-265" value="&lt;div&gt;preprocess data&lt;/div&gt;" style="rounded=0;whiteSpace=wrap;html=1;strokeWidth=2;" parent="1" vertex="1">
          <mxGeometry x="-732.48" y="1276" width="110" height="40" as="geometry" />
        </mxCell>
        <mxCell id="K02zq3fW6YqKF-il60_Z-268" value="" style="curved=1;endArrow=block;html=1;rounded=0;strokeWidth=2;endSize=4;endFill=1;" parent="1" edge="1">
          <mxGeometry width="50" height="50" relative="1" as="geometry">
            <mxPoint x="-630" y="1116" as="sourcePoint" />
            <mxPoint x="-500" y="1156" as="targetPoint" />
            <Array as="points">
              <mxPoint x="-610" y="1156" />
            </Array>
          </mxGeometry>
        </mxCell>
        <mxCell id="K02zq3fW6YqKF-il60_Z-269" value="&lt;div&gt;confirm identity&lt;/div&gt;&lt;div&gt;according to threshold&lt;br&gt;&lt;/div&gt;" style="rounded=1;whiteSpace=wrap;html=1;strokeWidth=2;" parent="1" vertex="1">
          <mxGeometry x="-420" y="1416" width="110" height="60" as="geometry" />
        </mxCell>
        <mxCell id="K02zq3fW6YqKF-il60_Z-270" value="" style="curved=1;endArrow=block;html=1;rounded=0;strokeWidth=2;endSize=4;endFill=1;" parent="1" edge="1">
          <mxGeometry width="50" height="50" relative="1" as="geometry">
            <mxPoint x="-320" y="1267" as="sourcePoint" />
            <mxPoint x="-370" y="1336" as="targetPoint" />
            <Array as="points">
              <mxPoint x="-310" y="1317" />
            </Array>
          </mxGeometry>
        </mxCell>
        <mxCell id="K02zq3fW6YqKF-il60_Z-284" value="predict label" style="rounded=1;whiteSpace=wrap;html=1;strokeWidth=2;" parent="1" vertex="1">
          <mxGeometry x="-520" y="1326" width="130" height="50" as="geometry" />
        </mxCell>
        <mxCell id="K02zq3fW6YqKF-il60_Z-285" value="" style="curved=1;endArrow=block;html=1;rounded=0;strokeWidth=2;endSize=4;endFill=1;" parent="1" edge="1">
          <mxGeometry width="50" height="50" relative="1" as="geometry">
            <mxPoint x="-452.52" y="1386" as="sourcePoint" />
            <mxPoint x="-430" y="1436" as="targetPoint" />
            <Array as="points">
              <mxPoint x="-460" y="1426" />
            </Array>
          </mxGeometry>
        </mxCell>
        <mxCell id="K02zq3fW6YqKF-il60_Z-287" value="verification" style="sketch=0;outlineConnect=0;dashed=0;verticalLabelPosition=bottom;verticalAlign=top;align=center;html=1;fontSize=12;fontStyle=0;aspect=fixed;pointerEvents=1;shape=mxgraph.aws4.folder;strokeWidth=1;fillColor=#030303;" parent="1" vertex="1">
          <mxGeometry x="-869.7800000000001" y="1267" width="45.04" height="41" as="geometry" />
        </mxCell>
        <mxCell id="K02zq3fW6YqKF-il60_Z-289" value="anchor" style="sketch=0;outlineConnect=0;dashed=0;verticalLabelPosition=bottom;verticalAlign=top;align=center;html=1;fontSize=12;fontStyle=0;aspect=fixed;pointerEvents=1;shape=mxgraph.aws4.folder;strokeWidth=1;fillColor=#030303;gradientColor=none;" parent="1" vertex="1">
          <mxGeometry x="-869.78" y="1359.87" width="45.04" height="41" as="geometry" />
        </mxCell>
        <mxCell id="K02zq3fW6YqKF-il60_Z-292" value="" style="sketch=0;outlineConnect=0;fontColor=#232F3E;gradientColor=none;fillColor=#030303;strokeColor=none;dashed=0;verticalLabelPosition=bottom;verticalAlign=top;align=center;html=1;fontSize=12;fontStyle=0;aspect=fixed;pointerEvents=1;shape=mxgraph.aws4.camera2;" parent="1" vertex="1">
          <mxGeometry x="-1009.7800000000001" y="1267" width="50.32" height="40" as="geometry" />
        </mxCell>
        <mxCell id="K02zq3fW6YqKF-il60_Z-293" value="" style="curved=1;endArrow=block;html=1;rounded=0;strokeWidth=2;endSize=4;endFill=1;" parent="1" edge="1">
          <mxGeometry width="50" height="50" relative="1" as="geometry">
            <mxPoint x="-949.58" y="1286" as="sourcePoint" />
            <mxPoint x="-879.58" y="1286" as="targetPoint" />
            <Array as="points">
              <mxPoint x="-919.62" y="1273" />
            </Array>
          </mxGeometry>
        </mxCell>
        <mxCell id="K02zq3fW6YqKF-il60_Z-294" value="&lt;div&gt;y pictures&lt;/div&gt;" style="edgeLabel;html=1;align=center;verticalAlign=middle;resizable=0;points=[];" parent="K02zq3fW6YqKF-il60_Z-293" vertex="1" connectable="0">
          <mxGeometry x="0.0976" y="-8" relative="1" as="geometry">
            <mxPoint y="-20" as="offset" />
          </mxGeometry>
        </mxCell>
        <mxCell id="K02zq3fW6YqKF-il60_Z-306" value="" style="curved=1;endArrow=block;html=1;rounded=0;strokeWidth=2;endSize=4;endFill=1;" parent="1" edge="1">
          <mxGeometry width="50" height="50" relative="1" as="geometry">
            <mxPoint x="-810" y="1386" as="sourcePoint" />
            <mxPoint x="-710" y="1326" as="targetPoint" />
            <Array as="points">
              <mxPoint x="-750" y="1416" />
            </Array>
          </mxGeometry>
        </mxCell>
        <mxCell id="K02zq3fW6YqKF-il60_Z-307" value="&lt;div&gt;y pictures&lt;/div&gt;" style="edgeLabel;html=1;align=center;verticalAlign=middle;resizable=0;points=[];" parent="K02zq3fW6YqKF-il60_Z-306" vertex="1" connectable="0">
          <mxGeometry x="0.2043" y="-1" relative="1" as="geometry">
            <mxPoint x="16" y="10" as="offset" />
          </mxGeometry>
        </mxCell>
        <mxCell id="K02zq3fW6YqKF-il60_Z-310" value="y floats&lt;br&gt;between 0 and 1" style="edgeLabel;html=1;align=center;verticalAlign=middle;resizable=0;points=[];" parent="1" vertex="1" connectable="0">
          <mxGeometry x="-500.0031256476975" y="1415.9979645239937" as="geometry" />
        </mxCell>
      </root>
    </mxGraphModel>
  </diagram>
</mxfile>
